<svg width="26" height="26" viewBox="0 0 26 26" fill="none" xmlns="http://www.w3.org/2000/svg">
<path d="M13 1.625C19.2676 1.625 24.375 6.73237 24.375 13C24.375 16.2988 22.9531 19.268 20.6895 21.3496C20.7007 21.3608 20.7012 21.3607 20.7012 21.3721C20.5875 21.4744 20.462 21.5764 20.3369 21.6787C20.2688 21.7242 20.2117 21.7811 20.1436 21.8379C19.9389 22.0085 19.7226 22.1679 19.4951 22.3271C19.4155 22.384 19.3471 22.4408 19.2676 22.4863C19.0401 22.6342 18.8125 22.76 18.585 22.8965C18.5055 22.9419 18.4258 22.9985 18.335 23.0439C18.0961 23.1691 17.857 23.2834 17.6182 23.3857C17.5273 23.4312 17.4365 23.4767 17.3457 23.5107C17.1069 23.6131 16.8449 23.6922 16.5947 23.7832C16.5037 23.806 16.4123 23.8399 16.3213 23.874C16.0598 23.965 15.7758 24.0226 15.5029 24.0908C15.4119 24.1022 15.3316 24.1361 15.252 24.1475C14.9335 24.2157 14.6149 24.2608 14.2852 24.2949C14.2397 24.3063 14.1939 24.3184 14.1484 24.3184C13.7732 24.3525 13.3866 24.375 13 24.375C12.6133 24.375 12.2266 24.3525 11.8398 24.3184C11.7943 24.307 11.7486 24.2949 11.7031 24.2949C11.3733 24.2608 11.0548 24.2157 10.7363 24.1475C10.6454 24.1361 10.5659 24.1135 10.4863 24.0908C10.2133 24.0226 9.93999 23.9536 9.66699 23.874C9.57616 23.8513 9.48537 23.8173 9.39453 23.7832C9.14436 23.7036 8.89373 23.6131 8.64355 23.5107C8.55255 23.4766 8.46112 23.4312 8.37012 23.3857C8.1199 23.2834 7.88079 23.1691 7.65332 23.0439C7.57379 22.9985 7.48281 22.9419 7.40332 22.8965C7.16446 22.7714 6.93681 22.6342 6.7207 22.4863C6.64125 22.4296 6.57266 22.3839 6.49316 22.3271C6.27715 22.168 6.04935 22.0084 5.84473 21.8379C5.7767 21.7924 5.71945 21.7354 5.65137 21.6787C5.53777 21.5765 5.40166 21.4856 5.28809 21.3721C5.29921 21.3609 5.29883 21.3606 5.29883 21.3496C3.04658 19.268 1.625 16.2988 1.625 13C1.625 6.73237 6.73237 1.625 13 1.625ZM13 3.33105C7.66513 3.33105 3.33105 7.66513 3.33105 13C3.33105 15.639 4.40088 18.0393 6.12988 19.791C6.47112 19.3702 6.8804 18.9832 7.38086 18.6533C10.4862 16.5832 15.5365 16.5832 18.6191 18.6533C19.1196 18.9832 19.5403 19.3702 19.8701 19.791C21.5991 18.0393 22.6689 15.639 22.6689 13C22.6689 7.66512 18.3349 3.33105 13 3.33105ZM13 7.23242C15.3545 7.23242 17.2654 9.14364 17.2656 11.498C17.2542 13.8072 15.4452 15.6733 13.1475 15.7529H12.9434C10.5432 15.6847 8.73438 13.8072 8.73438 11.498C8.73463 9.14364 10.6455 7.23242 13 7.23242Z" fill="url(#paint0_linear_70_1440)" fill-opacity="0.4"/>
<defs>
<linearGradient id="paint0_linear_70_1440" x1="13" y1="1.625" x2="13" y2="24.375" gradientUnits="userSpaceOnUse">
<stop stop-color="white" stop-opacity="0.6"/>
<stop offset="1" stop-color="white"/>
</linearGradient>
</defs>
</svg>
