<svg width="26" height="26" viewBox="0 0 26 26" fill="none" xmlns="http://www.w3.org/2000/svg">
<path d="M4.25708 15.3286C7.30119 13.3137 12.2307 13.3137 15.2532 15.3286C16.6181 16.2386 17.3653 17.4737 17.3762 18.8062C17.3762 20.1495 16.6181 21.3843 15.2532 22.3052C13.7366 23.3235 11.7435 23.8325 9.75024 23.8325C7.75691 23.8325 5.763 23.3235 4.24634 22.3052C2.88155 21.3952 2.12329 20.16 2.12329 18.8276C2.12341 17.4953 2.88147 16.2494 4.25708 15.3286ZM15.1555 13.856C17.5496 13.1626 20.5618 13.6276 22.4143 15.1226C23.411 15.9242 23.92 16.9322 23.8225 17.9722C23.7358 19.0229 23.0642 19.9328 21.9377 20.5503C20.8544 21.1461 19.4892 21.4275 18.135 21.395C18.9148 20.6909 19.3696 19.8138 19.4563 18.8823C19.5646 17.539 18.926 16.2494 17.6477 15.2202C16.9219 14.646 16.0764 14.1918 15.1555 13.856ZM9.75024 2.1665C12.5884 2.16664 14.8956 4.47387 14.8958 7.31201C14.8849 10.0962 12.7072 12.3493 9.93384 12.4468H9.85864C9.79375 12.436 9.70689 12.436 9.62036 12.4468C6.78203 12.3493 4.60376 10.0962 4.60376 7.31201C4.60389 4.47379 6.91199 2.1665 9.75024 2.1665ZM17.4524 4.40869C19.5757 4.22452 21.4714 5.80666 21.6555 7.95166C21.8288 10.0533 20.334 11.8949 18.2649 12.144H18.2112C18.1462 12.144 18.0808 12.1439 18.0266 12.1655C16.9759 12.2197 16.0122 11.8836 15.2864 11.2661C16.4019 10.2695 17.0413 8.77466 16.9114 7.1499C16.8355 6.27244 16.5314 5.47105 16.0764 4.78857C16.488 4.58277 16.965 4.45204 17.4524 4.40869Z" fill="url(#paint0_linear_70_1456)" fill-opacity="0.4"/>
<defs>
<linearGradient id="paint0_linear_70_1456" x1="12.9788" y1="2.1665" x2="12.9788" y2="23.8325" gradientUnits="userSpaceOnUse">
<stop stop-color="white" stop-opacity="0.6"/>
<stop offset="1" stop-color="white"/>
</linearGradient>
</defs>
</svg>
